<svg width="59" height="20" viewBox="0 0 59 20" fill="none" xmlns="http://www.w3.org/2000/svg">
<g clip-path="url(#clip0_11457_27300)">
<path d="M26.1141 0.000481179H6.57339C6.48286 0.000481179 6.41464 0.0691116 6.41464 0.158199V0.166777V2.99711L26.1455 0.0202782C26.156 0.0182985 26.1646 0.0182985 26.1757 0.0202782C26.1889 0.0218411 26.2012 0.0259209 26.2121 0.032018C26.1875 0.0134927 26.157 0.00197937 26.1232 0.000481179H26.1141Z" fill="white"/>
<path d="M7.2786 9.43978L21.1047 2.27914C21.1067 2.27452 21.1034 2.27452 21.1034 2.27452L2.87741 5.00323L7.2786 9.43978Z" fill="#222220"/>
<path d="M7.88017 10.7939L19.3611 4.84551L9.56022 12.8304L9.5202 12.8772L7.88017 15.8831V10.7939Z" fill="#222220"/>
<path d="M22.1858 17.6853L19.5205 14.9922C19.4608 14.9276 19.3617 14.9223 19.2974 14.983L19.2934 14.9856L19.2892 14.9884L19.2843 14.9922L16.0436 18.2673L11.1583 13.3497L24.3992 2.6599L22.1898 17.684L22.1858 17.6853Z" fill="#222220"/>
<path d="M26.1147 19.993C26.2059 19.993 26.2741 19.9217 26.2741 19.834V0.166777C26.2757 0.136361 26.2689 0.107663 26.2557 0.0829376C26.2619 0.0993179 26.264 0.117809 26.261 0.137082L23.3555 19.859C23.3447 19.9252 23.2981 19.9762 23.2378 19.993H26.1147Z" fill="white"/>
<path d="M17.8785 18.5128L19.4024 16.9752L20.9283 18.5128H17.8785Z" fill="#222220"/>
<path d="M12.6868 16.9752L6.64293 19.9732C6.62756 19.9824 6.61056 19.9893 6.59341 19.993H15.7363L15.6329 19.9514L12.6868 16.9752Z" fill="white"/>
<path d="M10.2831 14.5567L11.5814 15.8659L8.78284 17.3131L10.2831 14.5567Z" fill="#222220"/>
<path d="M0.0618026 19.7046C-0.00707875 19.7594 -0.020199 19.8617 0.031626 19.9303C0.0657387 19.9785 0.122156 19.9989 0.181853 19.993H6.53545C6.45425 19.9794 6.39801 19.9062 6.40414 19.8267V13.3365L0.0618026 19.7046Z" fill="white"/>
<path fill-rule="evenodd" clip-rule="evenodd" d="M29.9445 9.03723C29.9143 9.00754 29.8973 8.96398 29.8973 8.92109L30.0567 0.164798C30.0567 0.0526141 30.1079 0.00444096 30.2155 0.00444096H32.0372C32.1192 -0.0014982 32.192 0.0499742 32.2156 0.129823L33.8163 4.7782L35.3881 0.129823C35.4203 0.0519539 35.497 -0.000178384 35.583 0.00444096H37.4172C37.5169 0.00444096 37.5753 0.060533 37.5753 0.164798L37.7321 8.92109C37.7347 8.96398 37.7189 9.00556 37.6927 9.03723C37.6638 9.07023 37.6251 9.08936 37.5812 9.08541H36.1215C36.0389 9.09398 35.9693 9.03327 35.9634 8.95276V8.92505L35.8946 5.06328C35.8946 4.41459 35.9221 3.6359 35.9759 2.73051H35.9503C35.6833 3.53692 35.4465 4.17703 35.2451 4.6614L34.0059 7.94707C33.9901 8.02296 33.9206 8.07443 33.8478 8.07245H33.7796C33.7022 8.07443 33.6372 8.02296 33.6202 7.94707L32.3705 4.64754C32.1599 4.13743 31.9342 3.49996 31.6954 2.72985H31.6528C31.7177 3.53626 31.7453 4.30571 31.7367 5.0448L31.6803 8.91977C31.6869 9.00028 31.6285 9.07089 31.5498 9.07947H31.5242H30.0757C30.0259 9.0854 29.9793 9.07221 29.9445 9.03723ZM38.8939 9.03723C38.8611 9.00754 38.8447 8.96398 38.846 8.92109V0.164798C38.8447 0.121904 38.8611 0.0783504 38.8939 0.0479947C38.924 0.0156593 38.966 -0.00149854 39.01 0.000481179H41.3703C43.7602 0.000481179 44.9554 1.29786 44.9554 3.89855V4.94318C44.9554 7.71082 43.7733 9.09398 41.4123 9.09398H39.0106C38.9667 9.09398 38.924 9.07221 38.8939 9.03723ZM41.3264 7.49635C41.9522 7.49635 42.412 7.28716 42.7066 6.87208C42.9992 6.457 43.1474 5.81227 43.1474 4.94318V3.89855C43.1474 3.12052 42.9992 2.5431 42.6994 2.16497C42.4016 1.78619 41.9351 1.59613 41.3001 1.59613H40.6388V7.49569L41.3264 7.49635ZM46.1323 9.03723C46.1021 9.00754 46.0851 8.96398 46.0851 8.92109L46.2451 0.164798C46.2451 0.0526141 46.2956 0.00444096 46.4039 0.00444096H48.2388C48.3208 -0.0014982 48.3962 0.0499742 48.4172 0.129823L50.0061 4.7716L51.5792 0.123884C51.608 0.0440351 51.6854 -0.00545797 51.7727 0.000481179H53.6076C53.7079 0.000481179 53.7663 0.0565732 53.7663 0.160838L53.9231 8.91449C53.9257 8.9554 53.9093 8.99896 53.8824 9.03393C53.8549 9.06429 53.8136 9.08145 53.7703 9.08145H52.308C52.2267 9.08804 52.1578 9.02997 52.1493 8.94749V8.92175L52.0823 5.0646C52.0823 4.41591 52.1099 3.63722 52.167 2.73183H52.1381C51.8731 3.53824 51.6376 4.17835 51.4362 4.66272L50.1937 7.94839C50.176 8.02428 50.1123 8.07575 50.0349 8.07377H49.966C49.8926 8.07575 49.8237 8.02428 49.8099 7.94839L48.5517 4.64886C48.3418 4.13875 48.1174 3.50128 47.8766 2.73117H47.8366C47.8983 3.53758 47.9265 4.30703 47.9199 5.04612L47.8635 8.92109C47.8707 9.0016 47.813 9.07221 47.731 9.08079H47.7054H46.2569C46.213 9.0854 46.1664 9.06825 46.1323 9.03723ZM6.41464 2.99711L0.158237 3.94012C0.0657389 3.95332 0.00538577 4.0391 0.0191621 4.13017C0.0230981 4.16515 0.0401542 4.19946 0.0657387 4.2252L6.40414 10.6487V13.3365L6.41267 13.3279V10.6487L0.072299 4.2252C0.0486826 4.19946 0.0316263 4.16515 0.0276902 4.13017C0.0119459 4.0391 0.0742669 3.95332 0.164797 3.94012L6.41464 2.99711ZM26.2557 0.0829376C26.245 0.0629802 26.2301 0.0456112 26.2121 0.032018C26.2321 0.0432177 26.2474 0.0612216 26.2557 0.0829376ZM23.1968 19.9989C23.2109 19.9987 23.2247 19.9966 23.2378 19.993H15.7363L15.751 19.9989H23.1968ZM6.59341 19.993H6.53545C6.5412 19.994 6.54707 19.9946 6.55305 19.995C6.56611 19.9967 6.57981 19.9959 6.59341 19.993ZM29.938 19.9514C29.9097 19.9171 29.8966 19.8768 29.8966 19.8333V11.0697C29.8966 11.0268 29.9097 10.9886 29.938 10.9529C29.9662 10.9206 30.0062 10.9041 30.0475 10.9067H32.2438C33.2731 10.9067 34.0328 11.1529 34.5182 11.6465C35.0063 12.1427 35.2536 12.899 35.2582 13.9153C35.2582 14.8893 35.0063 15.629 34.5018 16.1378C33.9947 16.644 33.2587 16.8987 32.2944 16.8987H31.7013V19.8274C31.7013 19.9402 31.6495 19.9864 31.5426 19.9864H30.0528C30.0088 19.995 29.9681 19.9798 29.938 19.9514ZM32.2438 15.3037C32.6565 15.3037 32.9628 15.1909 33.1596 14.9704C33.3578 14.75 33.4562 14.4016 33.4562 13.9278C33.4562 13.4309 33.361 13.0679 33.1688 12.8416C32.9753 12.6146 32.6716 12.5017 32.2563 12.5017H31.6921V15.3037H32.2438ZM36.3387 19.9514C36.3105 19.9171 36.2954 19.8768 36.2974 19.8333V11.0697C36.2974 11.0268 36.3105 10.9886 36.3387 10.9529C36.3669 10.9206 36.4069 10.9041 36.4482 10.9067H38.8761C39.9166 10.9067 40.6775 11.1272 41.1591 11.5719C41.6406 12.0154 41.8807 12.7004 41.8807 13.6262C41.8807 14.9407 41.4444 15.7709 40.5706 16.1207L40.5575 16.149L42.2802 19.7917C42.2933 19.8221 42.3025 19.857 42.3071 19.8887C42.3071 19.9626 42.2612 19.9989 42.1693 19.9989H40.5142C40.4375 20.0075 40.3627 19.964 40.3345 19.8887L38.8315 16.4381H38.0856V19.8214C38.0856 19.9336 38.0358 19.9818 37.9289 19.9818H36.4397C36.4017 19.9857 36.3669 19.9758 36.3387 19.9514ZM38.846 14.9764C39.2717 14.9764 39.5814 14.8715 39.7795 14.659C39.9776 14.4518 40.0753 14.1271 40.0753 13.6995C40.0753 13.2718 39.9815 12.967 39.7919 12.7782C39.603 12.5888 39.2993 12.4925 38.8761 12.4925H38.0817V14.977L38.846 14.9764ZM43.2039 19.9514C43.1756 19.9171 43.1625 19.8768 43.1625 19.8333V11.0697C43.1625 11.0268 43.1763 10.9886 43.2039 10.9529C43.2314 10.9206 43.2721 10.9041 43.3128 10.9067H44.8045C44.9069 10.9067 44.9633 10.9628 44.9633 11.0658V19.8208C44.9633 19.9316 44.9108 19.9798 44.8045 19.9798H43.3128C43.2741 19.9857 43.236 19.9785 43.2039 19.9514ZM46.1238 19.9514C46.0975 19.9171 46.0824 19.8768 46.0844 19.8333V11.0697C46.0818 11.0268 46.0975 10.9886 46.1238 10.9529C46.1539 10.9206 46.1927 10.9041 46.236 10.9067H48.2092C48.286 10.9041 48.3509 10.9556 48.368 11.0308L49.8447 15.2351C50.1307 16.0039 50.3734 16.7872 50.5768 17.5797H50.603C50.521 16.4961 50.4784 15.5802 50.4784 14.8332V11.0697C50.4784 11.0268 50.4948 10.9846 50.525 10.9529C50.5578 10.9232 50.6017 10.9041 50.6463 10.9067H52.039C52.1191 10.8975 52.1893 10.9582 52.1978 11.0374V11.0658V19.8208C52.1978 19.9316 52.1466 19.9798 52.039 19.9798H50.0999C50.0231 19.9824 49.9562 19.9303 49.9411 19.8564L48.4631 15.7617C48.2906 15.2813 48.0511 14.4815 47.7461 13.3662H47.7061C47.7684 14.3 47.8005 15.2509 47.8005 16.2243V19.8175C47.8005 19.9296 47.7513 19.9778 47.6444 19.9778H46.2366C46.1972 19.9857 46.1559 19.9785 46.1238 19.9514ZM55.2686 19.8267V12.5143H53.4882C53.4468 12.5169 53.4055 12.4991 53.378 12.4674C53.3484 12.4338 53.3366 12.3942 53.3366 12.3493V11.0697C53.3366 11.0268 53.3491 10.9886 53.378 10.9529C53.4055 10.9206 53.4462 10.9041 53.4882 10.9067H58.8432C58.9416 10.9067 59 10.9628 59 11.0658V12.342C59 12.4536 58.9501 12.5017 58.8432 12.5017H57.0759V19.8155C57.0759 19.925 57.0247 19.9732 56.9172 19.9732H55.4175C55.3185 19.995 55.2686 19.9395 55.2686 19.8267Z" fill="white"/>
<path fill-rule="evenodd" clip-rule="evenodd" d="M6.41464 2.99711L0.164797 3.94012C0.0742669 3.95332 0.0119459 4.0391 0.0276902 4.13017C0.0316263 4.16515 0.0486826 4.19946 0.072299 4.2252L6.41267 10.6487V13.3279L6.40414 13.3365V19.8267C6.39801 19.9062 6.45425 19.9794 6.53545 19.993H6.59341C6.61056 19.9893 6.62756 19.9824 6.64293 19.9732L12.6868 16.9752L15.6329 19.9514L15.7363 19.993H23.2378C23.2981 19.9762 23.3447 19.9252 23.3555 19.859L26.261 0.137082C26.264 0.117809 26.2619 0.0993179 26.2557 0.0829376C26.245 0.0629802 26.2301 0.0456112 26.2121 0.032018C26.2012 0.0259209 26.1889 0.0218411 26.1757 0.0202782C26.1646 0.0182985 26.156 0.0182985 26.1455 0.0202782L6.41464 2.99711ZM21.1047 2.27914L7.2786 9.43978L2.87741 5.00323L21.1034 2.27452C21.1034 2.27452 21.1067 2.27452 21.1047 2.27914ZM19.3611 4.84551L7.88017 10.7939V15.8831L9.5202 12.8772L9.56022 12.8304L19.3611 4.84551ZM11.5814 15.8659L10.2831 14.5567L8.78284 17.3131L11.5814 15.8659ZM19.4024 16.9752L17.8785 18.5128H20.9283L19.4024 16.9752ZM19.5205 14.9922L22.1858 17.6853L22.1898 17.684L24.3992 2.6599L11.1583 13.3497L16.0436 18.2673L19.2843 14.9922L19.2892 14.9884L19.2934 14.9856L19.2974 14.983C19.3617 14.9223 19.4608 14.9276 19.5205 14.9922Z" fill="white"/>
</g>
<defs>
<clipPath id="clip0_11457_27300">
<rect width="59" height="20" fill="white"/>
</clipPath>
</defs>
</svg>
